<?xml version="1.0" encoding="UTF-8" standalone="no"?>
<!-- Created with Inkscape (http://www.inkscape.org/) -->

<svg
   xmlns:dc="http://purl.org/dc/elements/1.1/"
   xmlns:cc="http://creativecommons.org/ns#"
   xmlns:rdf="http://www.w3.org/1999/02/22-rdf-syntax-ns#"
   xmlns:svg="http://www.w3.org/2000/svg"
   xmlns="http://www.w3.org/2000/svg"
   xmlns:sodipodi="http://sodipodi.sourceforge.net/DTD/sodipodi-0.dtd"
   xmlns:inkscape="http://www.inkscape.org/namespaces/inkscape"
   width="96.312355mm"
   height="138.46721mm"
   viewBox="0 0 96.312355 138.46721"
   version="1.1"
   id="svg8"
   inkscape:version="0.92.1 r15371"
   sodipodi:docname="ReqMan.svg">
  <defs
     id="defs2" />
  <sodipodi:namedview
     id="base"
     pagecolor="#ffffff"
     bordercolor="#666666"
     borderopacity="1.0"
     inkscape:pageopacity="0.0"
     inkscape:pageshadow="2"
     inkscape:zoom="0.7"
     inkscape:cx="208.70804"
     inkscape:cy="302.05317"
     inkscape:document-units="mm"
     inkscape:current-layer="layer1"
     showgrid="false"
     inkscape:snap-global="false"
     fit-margin-top="0"
     fit-margin-left="0"
     fit-margin-right="0"
     fit-margin-bottom="0"
     inkscape:window-width="1920"
     inkscape:window-height="1017"
     inkscape:window-x="-8"
     inkscape:window-y="-8"
     inkscape:window-maximized="1" />
  <metadata
     id="metadata5">
    <rdf:RDF>
      <cc:Work
         rdf:about="">
        <dc:format>image/svg+xml</dc:format>
        <dc:type
           rdf:resource="http://purl.org/dc/dcmitype/StillImage" />
        <dc:title></dc:title>
      </cc:Work>
    </rdf:RDF>
  </metadata>
  <g
     inkscape:label="Layer 1"
     inkscape:groupmode="layer"
     id="layer1"
     transform="translate(-6.139356,-97.553831)">
    <path
       style="fill:#ffffff;fill-opacity:1;fill-rule:evenodd;stroke:#000015;stroke-width:0.26458332px;stroke-linecap:butt;stroke-linejoin:miter;stroke-opacity:1"
       d="m 49.979402,135.5692 c 0,0 -18.50162,15.63883 -23.317302,23.01089 -4.815681,7.37207 -11.427737,23.09311 -11.427737,23.09311 0,0 -2.784375,6.27492 -8.9535292,6.31424 0.3121322,4.61632 2.8800811,8.91074 5.5124342,11.29214 2.632352,2.38139 5.581432,2.89005 9.291381,2.76076 3.709948,-0.12929 10.319519,-1.65828 13.125851,-2.19282 3.674956,0.60137 9.642262,3.23808 10.690782,3.67496 1.20271,0.50113 4.209494,1.70385 5.445616,1.30294 1.23612,-0.4009 3.942225,-2.47224 5.278572,-4.47677 3.507912,1.10249 13.664154,4.37655 17.472744,0.16705 2.569352,-2.83981 7.410712,-8.68758 8.544642,-16.71957 1.133928,-8.032 4.724702,-38.93155 4.724702,-38.93155 l -17.29241,-13.89062 z"
       id="path4504"
       inkscape:connector-curvature="0"
       sodipodi:nodetypes="czcczzcsccssccc" />
    <path
       style="fill:#6e6e6e;fill-opacity:1;fill-rule:evenodd;stroke:#000000;stroke-width:0.99999994px;stroke-linecap:butt;stroke-linejoin:miter;stroke-opacity:1"
       d="m 295.41797,369.21094 c -2.95062,0.0167 -5.12751,0.0949 -5.68555,0.27344 -2.23214,0.71427 -6.25112,2.94614 -11.42969,7.76757 -5.17853,4.82141 -5.26757,7.94727 -5.26757,7.94727 l 0.0898,16.16016 c 0,0 -3.79355,2.94194 -3.73047,7.55078 0.0631,4.60883 2.9043,5.11328 2.9043,5.11328 0,0 6.50389,3.91524 3.97851,5.93554 -2.52538,2.02031 -3.03125,24.74805 -3.03125,24.74805 -8.9563,1.95935 -18.24364,-0.12724 -31.28125,8.16992 -9.10714,1.78572 -21.78599,8.036 -24.10742,11.60743 -4.85854,2.69989 -7.00858,13.42567 -10.33984,22.86523 -10.16108,4.55134 -14.52623,20.03541 -17.16016,26.95508 -3.88393,0.53571 -10.69531,22.84179 -10.69531,22.84179 0,0 -2.55859,3.34404 1.19141,6.20118 4.07497,8.46686 19.91427,22.95654 25.72265,26.11328 5.80837,3.15673 24.85268,15.73698 27.53125,15.55859 2.67857,-0.17858 17.5,14.33008 17.5,14.33008 0,0 6.21334,-2.20961 2.78711,1.86328 -12.98235,15.43264 -8.4219,48.80864 -13.47265,61.43555 -5.05077,12.62691 -1.28439,55.77938 -1.83008,60.17968 -4.2957,4.40036 -16.04787,36.75472 -17.23047,42.17188 -0.28975,5.72961 -4.30957,66.37949 -3.04688,68.65234 -1.68374,7.27287 -4.85052,19.462 -6.77148,25.00782 -1.83167,7.06363 -14.4689,17.17579 -24.66016,27.48437 -1.26269,2.27282 1.76894,4.54572 2.02149,5.05078 7.30611,1.13008 27.7793,-0.75742 30.30468,-1.76758 2.52538,-1.01015 8.60352,-7.29296 8.60352,-7.29296 0,0 6.54748,-1.29349 11.3457,-1.04102 4.79823,0.25255 0.75726,-16.92011 1.00977,-20.20313 0.25254,-3.283 0.92383,-16.32851 0.92383,-27.94531 0,-11.61672 22.01387,-65.73265 22.77148,-69.01562 0.75762,-3.28301 -1.97712,-19.96508 3.32617,-23.24805 5.30332,-3.28301 21.71994,-31.56646 26.26563,-41.66797 4.54569,-10.10154 8.33203,-32.32617 8.33203,-32.32617 0,0 9.8e-4,15.15357 1.26367,22.22461 1.26269,7.07108 13.38417,27.52662 13.63672,39.64844 0.25254,12.12185 -10.10078,31.31394 -9.5957,39.14257 0.50508,7.82873 9.84864,27.27445 13.63672,36.11329 3.78806,8.83884 3.98053,37.06651 4.16992,39.9707 0.18941,2.90419 -1.13867,7.63281 -1.13867,7.63281 0,0 -2.2103,3.85065 0.25195,10.35352 2.46224,6.50286 13.3457,5.03125 13.3457,5.03125 0,0 4.99917,10.0011 11.42774,11.42969 6.42858,1.42853 20.71484,0.71484 20.71484,0.71484 0,0 10.71402,-6.07226 7.14258,-8.57227 -4.8254,-3.3778 -28.5717,-20.71346 -32.85742,-26.42773 -4.28571,-5.71427 2.85742,-42.85742 2.85742,-42.85742 0,0 2.85658,-1.42886 4.28515,-27.85742 1.42858,-26.42858 -2.14145,-25.62612 -3.21289,-30.17969 -1.07142,-4.55358 2.41016,-16.69531 2.41016,-16.69531 0,0 5.00055,-24.64423 6.33984,-37.41211 1.33928,-12.76785 -0.98186,-26.51786 -2.76757,-42.5 -1.78571,-15.98215 -12.41211,-40.71289 -12.41211,-40.71289 l 22.05468,-16.33985 c 0,0 17.14316,-13.74997 21.60743,-26.25 4.4643,-12.49999 -4.19727,-16.51758 -4.19727,-16.51758 0,0 0.0894,-13.39312 0.35742,-17.85742 0.26786,-4.46426 -4.82226,-12.41015 -4.82226,-12.41015 0,0 -1.51646,-23.48273 -3.21289,-29.46485 -1.69643,-5.98216 -3.4827,-5.26758 -11.96485,-13.39258 -8.4821,-8.12519 -10.98238,-0.17942 -16.60738,-7.94726 -7.32143,-12.32145 -27.23242,-13.03516 -27.23242,-13.03516 l -1.16016,-9.375 c 0,0 0.98131,-0.44531 2.67774,-1.69531 1.69641,-1.25 1.16211,-13.30469 1.16211,-13.30469 0,0 3.12471,-3.30357 4.01757,-9.375 0.89285,-6.07143 -1.78543,-7.40957 -2.76757,-11.07031 -0.98214,-3.6607 4.73046,-12.76953 4.73046,-12.76953 l 3.92969,-18.57031 c 0,-10e-6 -4.37528,1.33814 -5.98242,1.69531 -1.60714,0.35713 1.96484,-4.55274 1.96484,-4.55274 0,0 -1.07198,0.80385 -3.83984,2.23243 -2.76784,1.42856 -2.41016,-6.07227 -2.41016,-6.07227 0,0 -15.82003,-0.50139 -24.67187,-0.45117 z M 240.16406,529.8125 c -4.04061,4.79822 17.92999,27.7784 19.06641,29.41992 1.13643,1.64149 1.64091,18.05722 0.25195,20.33008 -1.38896,2.27282 -0.16142,1.37515 -5.05078,0.50586 -2.52401,-0.44878 -10.49064,-15.39304 -12.08398,-21.91602 -3.15515,-9.61406 -10.04632,-21.2798 -14.43164,-23.54101 5.88834,0.73765 12.24804,-4.79883 12.24804,-4.79883 z m 109.14649,15.97852 c 0.0677,-0.0124 0.12706,-0.009 0.17968,0.0117 1.7916,9.28933 1.50719,8.2421 8.10352,12.29493 -0.92069,3.48056 -6.60629,4.39984 -6.7793,11.23046 -0.2197,8.67376 -3.30424,14.78833 -3.82617,14.52735 -1.01015,-0.50506 -6.02477,0.26329 -6.38281,-1.5957 -0.51261,-3.94942 1.89517,-17.46801 2.79101,-21.61329 2.25693,-10.71542 4.89886,-14.66978 5.91407,-14.85546 z"
       id="path4496"
       transform="scale(0.26458333)"
       inkscape:connector-curvature="0"
       sodipodi:nodetypes="sccccccccccccccsccscccccccccccsscccssscccsccccccsccsscccccccccccccccccccccsccccccccccscccc" />
    <path
       style="fill:#ffffff;fill-opacity:1;fill-rule:evenodd;stroke:#000000;stroke-width:0.26458332px;stroke-linecap:butt;stroke-linejoin:miter;stroke-opacity:1"
       d="m 72.217075,122.98924 c 0,0 -2.433222,-1.7009 -3.401785,-2.17336 -1.795389,-0.35436 -5.433409,-0.25986 -5.386162,-0.4016 0.04725,-0.14174 0.543341,-1.46466 1.299292,-1.74814 0.566967,-0.56697 1.984378,-0.23624 2.385975,-0.42518 0.401601,-0.18898 1.299294,-0.82682 2.480471,-0.94493 0.874069,-0.0473 2.196987,0.0709 2.338727,1.06305 0.141742,0.99219 0.141742,2.78758 0.259858,2.88207 0.87407,0.87408 2.527718,1.03943 3.000187,1.11031 0.472469,0.0709 0.898909,0.50574 0.850447,0.56696 -0.04836,0.0876 -2.915388,0.0546 -3.82701,0.0708 z"
       id="path4506"
       inkscape:connector-curvature="0"
       sodipodi:nodetypes="ccccccccccc" />
    <path
       style="fill:#ffffff;fill-opacity:1;fill-rule:evenodd;stroke:#000000;stroke-width:0.26458332px;stroke-linecap:butt;stroke-linejoin:miter;stroke-opacity:1"
       d="m 83.453981,123.31116 c 0.07816,0.0845 3.80952,-0.5709 4.110198,-0.90498 0.300677,-0.33409 2.029824,-0.43635 2.831633,0.1316 0.801806,0.56795 1.043774,0.0688 1.043774,0.0688 0,0 -1.090326,-1.69539 -2.894395,-2.36356 -0.467725,-0.93545 -1.336638,-1.06167 -2.106079,-1.07719 -0.485958,-0.16909 -1.557067,-0.004 -1.586769,0.32025 -0.03961,0.3613 0.303511,2.31579 0.03914,2.61937 -0.79093,0.39187 -1.515665,1.12117 -1.437502,1.20571 z"
       id="path4508"
       inkscape:connector-curvature="0"
       sodipodi:nodetypes="zcccccccz" />
    <g
       aria-label="R"
       style="font-style:normal;font-variant:normal;font-weight:bold;font-stretch:normal;font-size:25.39999962px;line-height:125%;font-family:Now;-inkscape-font-specification:'Now Bold';letter-spacing:0px;word-spacing:0px;fill:#000000;fill-opacity:1;stroke:none;stroke-width:0.26458332px;stroke-linecap:butt;stroke-linejoin:miter;stroke-opacity:1"
       id="text4512"
       transform="matrix(0.84594952,-0.00655237,0.00631555,0.87767091,10.782436,18.143674)">
      <path
         d="m 82.32086,137.82279 c 2.126055,-0.66426 4.193607,-3.17948 4.143925,-5.60195 -0.0618,-3.01332 -2.300656,-5.12158 -5.403393,-5.05794 l -7.748352,0.45822 c 0,0 0.482195,3.8922 0.599619,8.26712 0.117424,4.37493 -0.236088,9.45829 -0.236088,9.45829 l 4.043141,-0.31536 -0.207383,-6.61997 1.596554,-0.0327 4.598867,6.0274 3.856947,-0.59253 z m -1.771835,-2.69539 -3.102737,0.0636 -0.08604,-4.19501 3.102738,-0.0636 c 1.265194,-0.0259 2.217203,0.84116 2.242044,2.05239 0.02545,1.24078 -0.890815,2.11667 -2.156009,2.14261 z"
         style="font-style:normal;font-variant:normal;font-weight:bold;font-stretch:normal;font-family:Now;-inkscape-font-specification:'Now Bold';fill:#dcdcdc;fill-opacity:1;stroke:#000000;stroke-width:0.24864887px;stroke-opacity:1"
         id="path4514"
         inkscape:connector-curvature="0"
         sodipodi:nodetypes="cscczcccccccccccccc" />
    </g>
  </g>
</svg>
